<svg xmlns="https://www.w3.org/2000/svg" id="Layer" viewBox="0 0 335.99 235.19"><style id="style2">.st51{opacity:.1;fill-rule:evenodd;clip-rule:evenodd;fill:#fff}</style><linearGradient id="_x3C_Group_x3E__27_" gradientUnits="userSpaceOnUse" x1="167.993" y1="235.19" x2="167.993"><stop offset="0" id="stop4" stop-color="#fff"/><stop offset="1" id="stop6" stop-color="#75c7cb"/></linearGradient><path id="_x3C_Group_x3E__28_" fill="url(#_x3C_Group_x3E__27_)" d="M0 0h335.99v235.19H0z"/><linearGradient id="_x3C_Group_x3E__29_" gradientUnits="userSpaceOnUse" x1="167.993" y1="235.19" x2="167.993" y2="159.715"><stop offset="0" id="stop10" stop-color="#2d9248"/><stop offset=".394" id="stop12" stop-color="#94b056"/><stop offset="1" id="stop14" stop-color="#ffe47b"/></linearGradient><g id="_x3C_Group_x3E__24_" fill="#fff"><path id="_x3C_Group_x3E__3_" d="M186.8 74.3c.35 0 .68.06 1 .16.62-1.17 1.94-1.98 3.49-1.98.22 0 .44.02.66.06 1-2.02 3.47-3.45 6.36-3.45.34 0 .67.03.99.06v-.06c0-3.31 2.59-6.01 5.79-6.04.45-2.95 3.26-5.21 6.67-5.21 1.74 0 3.31.59 4.51 1.56.45-1.09 1.52-1.9 2.84-2.09.63-1.76 2.22-3.02 4.1-3.02 1.84 0 3.41 1.2 4.07 2.91.19-.1.39-.16.62-.16.58 0 1.09.38 1.32.93a.86.86 0 0 1 .44-.15c.01-.95.75-1.73 1.71-1.85 0-.05-.01-.09-.01-.13 0-2.09 1.84-3.79 4.11-3.79.31 0 .61.04.89.1.16-.47.53-.85 1.02-1.04-.25-.35-.41-.77-.41-1.23 0-1.19 1.01-2.15 2.26-2.15.19 0 .36.03.54.07.15-1.03.97-1.82 1.98-1.82.73 0 1.36.42 1.71 1.04.3-.16.63-.26.98-.26 1.08 0 1.97.86 2.11 1.96.03 0 .06-.01.09-.01.81 0 1.46.62 1.46 1.38 0 .07-.01.14-.02.21.49-.13 1-.21 1.53-.21 2.69 0 4.91 1.86 5.14 4.22 1.42.05 2.59 1.01 2.94 2.31l.53.31c1.02-1.05 2.53-1.71 4.21-1.71 2.59 0 4.75 1.56 5.37 3.67 1.04.08 1.87.98 1.94 2.12.18-.06.38-.1.59-.1.87 0 1.58.58 1.69 1.33a6.035 6.035 0 0 1 4.79-.75c.55-.74 1.45-1.23 2.48-1.23.75 0 1.43.27 1.96.7.89-.36 1.89-.57 2.94-.57.42 0 .83.04 1.23.1 1-1.51 2.54-2.48 4.28-2.48.32 0 .63.04.94.1.97-2.56 3.17-4.34 5.72-4.34 3.14 0 5.74 2.7 6.18 6.21.13-.01.27-.05.4-.05 2.63 0 4.76 2.27 4.76 5.06 0 .15-.03.3-.05.44 1.4.19 2.47 1.23 2.47 2.49 0 .05-.02.1-.02.15.73-.42 1.62-.66 2.58-.66 2.53 0 4.58 1.71 4.58 3.82 0 .13-.03.26-.05.39.5-.24 1.08-.39 1.71-.39 1.85 0 3.34 1.18 3.34 2.64 1.01 0 1.63.88 2.06 1.73 1.29 2.51-.85 3.21-1.85 3.21H187c-1.56 0-3.02-.85-3.02-2.16-.01-1.29 1.25-2.35 2.82-2.35z"/><path id="_x3C_Group_x3E__4_" d="M137.34 82.75c.35 0 .68.06.99.16.61-1.16 1.93-1.97 3.46-1.97.22 0 .44.03.65.06.99-2 3.44-3.42 6.3-3.42.34 0 .66.03.98.06v-.06c0-3.29 2.57-5.95 5.74-5.98.45-2.92 3.23-5.17 6.61-5.17 1.72 0 3.29.58 4.47 1.54.44-1.08 1.5-1.88 2.81-2.07.62-1.75 2.2-3 4.07-3 1.82 0 3.38 1.19 4.03 2.88.19-.1.39-.15.61-.15.58 0 1.08.38 1.31.92a.83.83 0 0 1 .44-.15c.01-.94.74-1.71 1.7-1.83 0-.05-.02-.09-.02-.13 0-2.08 1.83-3.76 4.07-3.76.3 0 .6.04.88.1.16-.46.52-.84 1.01-1.03a2.08 2.08 0 0 1-.41-1.22c0-1.17 1-2.13 2.24-2.13.18 0 .36.03.54.07.14-1.02.96-1.8 1.96-1.8.72 0 1.34.42 1.69 1.03.29-.16.62-.26.97-.26 1.08 0 1.95.85 2.1 1.94.03 0 .06-.01.09-.01.8 0 1.45.61 1.45 1.37 0 .07-.01.13-.02.2.48-.13.99-.2 1.52-.2 2.67 0 4.86 1.84 5.1 4.18 1.41.05 2.57 1.01 2.91 2.29l.53.31c1.01-1.04 2.5-1.69 4.17-1.69 2.56 0 4.71 1.54 5.32 3.63 1.04.08 1.86.97 1.93 2.1.18-.06.38-.1.58-.1.86 0 1.57.58 1.68 1.32.94-.59 2.04-.94 3.22-.94.53 0 1.04.07 1.53.2.55-.73 1.44-1.22 2.46-1.22.74 0 1.41.27 1.94.69a7.734 7.734 0 0 1 4.13-.46c.99-1.49 2.52-2.46 4.24-2.46.32 0 .62.04.93.11.96-2.54 3.14-4.3 5.67-4.3 3.12 0 5.69 2.67 6.12 6.16.13-.01.26-.05.4-.05 2.61 0 4.72 2.25 4.72 5.02 0 .15-.03.3-.04.44 1.39.19 2.45 1.22 2.45 2.47 0 .05-.02.1-.02.15.73-.42 1.6-.66 2.55-.66 2.51 0 4.54 1.69 4.54 3.79 0 .13-.03.26-.05.38.5-.24 1.08-.38 1.7-.38 1.83 0 3.31 1.17 3.31 2.62 1 0 1.61.87 2.04 1.71 1.28 2.48-.84 3.18-1.84 3.18H137.54c-1.54 0-3-.85-3-2.14s1.25-2.34 2.8-2.34z" opacity=".4"/><path id="_x3C_Group_x3E__1_" d="M107.09 32.71a2.467 2.467 0 0 1 1.93-3.34c-.01-.09-.01-.19-.01-.29 0-1.89 1.35-3.42 3.03-3.42.18 0 .35.02.52.05.61-1.44 1.9-2.44 3.4-2.44 1.28 0 2.41.73 3.09 1.83.3-.09.61-.15.93-.15 1.13 0 2.14.61 2.8 1.57.35-.18.75-.3 1.18-.3a2.418 2.418 0 0 1 2.41-2.03c.23 0 .44.04.65.1.07-.34.36-.62.74-.72-.06-.17-.09-.35-.09-.55 0-.94.72-1.7 1.61-1.7.05 0 .1.01.15.02.19-.92 1-1.6 1.97-1.6.18 0 .36.03.52.08.34-.5.89-.82 1.52-.82.72 0 1.33.43 1.65 1.05.3-.26.71-.43 1.16-.44v-.01c0-.85.69-1.54 1.54-1.54.07 0 .14.01.2.02.13-.58.62-1.01 1.2-1.01.32 0 .61.14.83.35.15-.14.35-.23.57-.23.17 0 .33.06.47.15.01-.8.75-1.45 1.67-1.45.17 0 .33.03.48.07.21-1 1.13-1.76 2.25-1.82.25-.69.96-1.19 1.8-1.19.7 0 1.31.35 1.64.86.15-.07.32-.11.5-.11.64 0 1.16.51 1.19 1.16h.05c.57 0 1.03.45 1.03 1 0 .09-.02.18-.04.26.13-.04.27-.06.41-.06.77 0 1.39.52 1.39 1.15 0 .09-.01.17-.04.25.34-.12.7-.19 1.09-.19.92 0 1.72.38 2.23.96.54-1.35 1.81-2.3 3.29-2.3 1.57 0 2.91 1.08 3.38 2.57.26-.11.54-.18.83-.18 1.34 0 2.43 1.29 2.43 2.88 0 .06-.01.12-.02.19.16-.05.33-.09.51-.09 1.04 0 1.89.93 1.89 2.08 0 .28-.05.55-.15.8 1.07.38 1.83 1.28 1.83 2.33 0 .19-.03.37-.07.55.33-.13.69-.21 1.07-.21 1.25 0 2.29.8 2.64 1.89.71-1.35 2.19-2.29 3.91-2.29 1.6 0 3 .82 3.76 2.03.43-.49 1.04-.8 1.72-.8 1.3 0 2.36 1.12 2.36 2.51 0 .24-.04.46-.1.68.21-.04.43-.06.65-.06 1.78 0 3.22 1.24 3.22 2.78 0 .24-.04.48-.11.71 1.05.7 1.45 2.35-1.7 3.36h-80.84c-1.75 0-3.18-1.11-3.18-2.48.01-1.33 1.37-2.42 3.06-2.47z" opacity=".6"/><path id="_x3C_Group_x3E__5_" d="M13.31 80.05c-.15-.38-.24-.78-.24-1.21 0-1.67 1.23-3.05 2.83-3.3-.01-.13-.02-.26-.02-.39 0-2.55 1.83-4.62 4.09-4.62.24 0 .47.03.7.07.82-1.94 2.57-3.29 4.6-3.29 1.73 0 3.26.98 4.18 2.48.4-.12.82-.2 1.25-.2 1.53 0 2.89.83 3.79 2.12.47-.25 1.01-.4 1.6-.41.24-1.55 1.6-2.74 3.26-2.74.31 0 .6.05.88.13.1-.46.49-.84 1-.97-.08-.23-.13-.48-.13-.74 0-1.27.97-2.29 2.17-2.29.07 0 .14.01.21.02a2.714 2.714 0 0 1 2.66-2.17c.25 0 .48.04.71.1.46-.67 1.21-1.11 2.05-1.11.97 0 1.8.58 2.23 1.43.41-.35.96-.58 1.57-.6v-.01c0-1.15.93-2.08 2.07-2.08.09 0 .18.02.27.03.18-.78.83-1.36 1.62-1.36.43 0 .82.18 1.12.47.21-.19.48-.31.77-.31.23 0 .45.08.63.2.02-1.08 1.02-1.96 2.26-1.96.23 0 .45.04.66.1.28-1.35 1.53-2.38 3.04-2.45.34-.93 1.29-1.61 2.44-1.61.95 0 1.77.47 2.21 1.16.21-.1.44-.16.68-.16.87 0 1.57.69 1.6 1.56.02 0 .04-.01.06-.01.77 0 1.39.61 1.39 1.35 0 .12-.02.24-.06.36.18-.05.36-.08.56-.08 1.03 0 1.87.7 1.87 1.56 0 .11-.02.23-.05.34.45-.17.95-.26 1.48-.26 1.24 0 2.32.52 3.01 1.3.73-1.83 2.45-3.11 4.44-3.11 2.13 0 3.93 1.45 4.57 3.47.35-.15.73-.25 1.13-.25 1.81 0 3.28 1.74 3.28 3.89 0 .09-.02.17-.02.25.22-.07.45-.12.69-.12 1.41 0 2.55 1.26 2.55 2.81 0 .38-.07.75-.2 1.08 1.45.51 2.47 1.73 2.47 3.15 0 .25-.04.5-.1.74.44-.18.93-.28 1.44-.28 1.68 0 3.1 1.08 3.57 2.55.97-1.83 2.96-3.09 5.28-3.09 2.17 0 4.05 1.11 5.08 2.75.58-.66 1.4-1.08 2.32-1.08 1.76 0 3.19 1.52 3.19 3.39 0 .32-.05.62-.13.92.28-.05.57-.07.87-.07 2.41 0 4.35 1.68 4.35 3.75 0 .33-.06.65-.15.96 1.42.95 1.95 3.17-2.3 4.54H13.48c-2.37 0-4.29-1.5-4.29-3.35 0-1.81 1.83-3.28 4.12-3.35z" opacity=".8"/></g><linearGradient id="_x3C_Group_x3E__30_" gradientUnits="userSpaceOnUse" x1="28.478" y1="84.605" x2="49.52" y2="84.605" gradientTransform="scale(-1 1) rotate(7.394 -1015.813 -2460.039)"><stop offset="0" id="stop153" stop-color="#2d9248"/><stop offset=".041" id="stop155" stop-color="#2b8c45"/><stop offset=".205" id="stop157" stop-color="#24773a"/><stop offset=".378" id="stop159" stop-color="#1e6832"/><stop offset=".559" id="stop161" stop-color="#1a5d2d"/><stop offset=".757" id="stop163" stop-color="#18572a"/><stop offset="1" id="stop165" stop-color="#175529"/></linearGradient><linearGradient id="_x3C_Group_x3E__31_" gradientUnits="userSpaceOnUse" x1="303.929" y1="209.538" x2="324.697" y2="209.538"><stop offset="0" id="stop216" stop-color="#2d9248"/><stop offset=".041" id="stop218" stop-color="#2b8c45"/><stop offset=".205" id="stop220" stop-color="#24773a"/><stop offset=".378" id="stop222" stop-color="#1e6832"/><stop offset=".559" id="stop224" stop-color="#1a5d2d"/><stop offset=".757" id="stop226" stop-color="#18572a"/><stop offset="1" id="stop228" stop-color="#175529"/></linearGradient><linearGradient id="_x3C_Group_x3E__32_" gradientUnits="userSpaceOnUse" x1="279.762" y1="205.489" x2="304.527" y2="205.489"><stop offset="0" id="stop233" stop-color="#2d9248"/><stop offset=".041" id="stop235" stop-color="#2b8c45"/><stop offset=".205" id="stop237" stop-color="#24773a"/><stop offset=".378" id="stop239" stop-color="#1e6832"/><stop offset=".559" id="stop241" stop-color="#1a5d2d"/><stop offset=".757" id="stop243" stop-color="#18572a"/><stop offset="1" id="stop245" stop-color="#175529"/></linearGradient><linearGradient id="_x3C_Group_x3E__33_" gradientUnits="userSpaceOnUse" x1="257.387" y1="214.696" x2="276.678" y2="214.696"><stop offset="0" id="stop249" stop-color="#2d9248"/><stop offset=".041" id="stop251" stop-color="#2b8c45"/><stop offset=".205" id="stop253" stop-color="#24773a"/><stop offset=".378" id="stop255" stop-color="#1e6832"/><stop offset=".559" id="stop257" stop-color="#1a5d2d"/><stop offset=".757" id="stop259" stop-color="#18572a"/><stop offset="1" id="stop261" stop-color="#175529"/></linearGradient><linearGradient id="_x3C_Group_x3E__34_" gradientUnits="userSpaceOnUse" x1="204.286" y1="221.912" x2="267.36" y2="221.912"><stop offset="0" id="stop265" stop-color="#2d9248"/><stop offset=".041" id="stop267" stop-color="#2b8c45"/><stop offset=".205" id="stop269" stop-color="#24773a"/><stop offset=".378" id="stop271" stop-color="#1e6832"/><stop offset=".559" id="stop273" stop-color="#1a5d2d"/><stop offset=".757" id="stop275" stop-color="#18572a"/><stop offset="1" id="stop277" stop-color="#175529"/></linearGradient><path id="_x3C_Group_x3E__7_" class="st51" d="M335.99 26.46v12.43C223.99 78.28 112 21.88 0 33.12V20.69c112-11.23 223.99 45.16 335.99 5.77z"/><path id="_x3C_Group_x3E__8_" class="st51" d="M335.99 99.11v12.43C223.99 150.92 112 94.53 0 105.76V93.34c112-11.24 223.99 45.15 335.99 5.77z"/></svg>